<?xml version="1.0" standalone="no"?><!DOCTYPE svg PUBLIC "-//W3C//DTD SVG 1.1//EN" "http://www.w3.org/Graphics/SVG/1.1/DTD/svg11.dtd"><svg t="1714227033022" class="icon" viewBox="0 0 1024 1024" version="1.1" xmlns="http://www.w3.org/2000/svg" p-id="37641" xmlns:xlink="http://www.w3.org/1999/xlink" width="200" height="200"><path d="M213.336 85.344c-11.782 0-21.312 9.546-21.312 21.328S201.554 128 213.336 128s21.344-9.546 21.344-21.328-9.562-21.328-21.344-21.328zM810.696 85.344c-11.812 0-21.376 9.546-21.376 21.328S798.882 128 810.696 128c11.75 0 21.312-9.546 21.312-21.328s-9.562-21.328-21.312-21.328z" fill="#CCD1D9" p-id="37642"></path><path d="M452.024 490.828V1024h127.984V490.828z" fill="#434A54" p-id="37643"></path><path d="M213.336 0h597.36v298.672h-597.36z" fill="#E6E9ED" p-id="37644"></path><path d="M618.696 640c0 23.562-19.124 42.688-42.688 42.688h-127.984c-23.562 0-42.688-19.124-42.688-42.688v-149.328c0-23.562 19.124-42.656 42.688-42.656h127.984c23.562 0 42.688 19.094 42.688 42.656V640z" fill="#4A89DC" p-id="37645"></path><path d="M853.32 469.5c0 23.562-19.062 42.672-42.624 42.672h-597.36c-23.562 0-42.656-19.11-42.656-42.672V170.672h682.64V469.5z" fill="#5D9CEC" p-id="37646"></path><path d="M426.68 576.062c0-11.782-9.562-21.312-21.344-21.312v42.624c11.782 0.002 21.344-9.53 21.344-21.312zM618.696 597.376v-42.624c-11.812 0-21.376 9.532-21.376 21.312s9.562 21.312 21.376 21.312z" opacity=".1" p-id="37647"></path><path d="M320.024 64c-11.782 0-21.344 9.562-21.344 21.344V128c0 11.782 9.562 21.344 21.344 21.344S341.336 139.782 341.336 128V85.344c0-11.782-9.532-21.344-21.312-21.344zM704.008 64c-11.75 0-21.312 9.562-21.312 21.344V128c0 11.782 9.562 21.344 21.312 21.344 11.812 0 21.312-9.562 21.312-21.344V85.344c0-11.782-9.5-21.344-21.312-21.344z" fill="#CCD1D9" p-id="37648"></path></svg>