<?xml version="1.0" standalone="no"?><!DOCTYPE svg PUBLIC "-//W3C//DTD SVG 1.1//EN" "http://www.w3.org/Graphics/SVG/1.1/DTD/svg11.dtd"><svg t="1715272775165" class="icon" viewBox="0 0 1024 1024" version="1.1" xmlns="http://www.w3.org/2000/svg" p-id="10447" xmlns:xlink="http://www.w3.org/1999/xlink" width="200" height="200"><path d="M93.090909 837.166545h46.545455v46.568728h46.545454v46.545454H93.090909v-93.114182z m279.272727 0.023273h46.545455v93.090909h-93.090909v-46.545454h46.545454v-46.545455z m46.545455-232.727273v93.09091h-46.545455v-46.545455h-46.545454v-46.545455h93.090909z m-232.727273 0v46.545455H139.636364v46.522182H93.090909v-93.067637h93.090909z" fill="#05DC92" p-id="10448"></path><path d="M186.181818 720.826182v93.090909H162.909091v-93.090909h23.272727z m128 0v93.090909h-23.272727v-93.090909h23.272727z m34.909091 0v93.090909h-23.272727v-93.090909h23.272727z m-69.818182 0v93.090909h-11.636363v-93.090909H279.272727z m-23.272727 0v93.090909H209.454545v-93.090909h46.545455zM840.331636 92.462545C890.368 92.462545 930.909091 133.562182 930.909091 184.273455v137.704727c0 50.734545-16.244364 96.930909-93.277091 96.930909l-22.714182 116.526545 65.536 336.337455c6.865455 24.366545-7.912727 59.136-42.821818 59.136l-115.898182-0.628364a68.072727 68.072727 0 0 1-65.303273-49.943272c-11.008-59.368727-28.136727-166.632727-51.362909-321.722182H535.505455c-21.131636 0-38.167273-5.841455-42.845091-26.763637L467.176727 418.909091H258.769455c-36.235636 0-69.957818-26.996364-84.224-60.741818L105.355636 197.469091C82.129455 142.801455 90.856727 92.462545 138.891636 92.462545h701.44z" fill="#424A60" p-id="10449"></path><path d="M467.176727 418.909091l56.715637 0.349091a79.243636 79.243636 0 0 1 81.152 77.312v62.045091H535.505455c-21.131636 0-38.167273-5.841455-42.845091-26.763637L467.176727 418.909091z" fill="#99A1B9" p-id="10450"></path><path d="M721.454545 186.181818m-23.272727 0a23.272727 23.272727 0 1 0 46.545455 0 23.272727 23.272727 0 1 0-46.545455 0Z" fill="#05DC92" p-id="10451"></path><path d="M347.298909 232.727273h515.584c11.869091 0 21.480727 10.426182 21.480727 23.272727s-9.611636 23.272727-21.480727 23.272727H347.298909C335.429818 279.272727 325.818182 268.846545 325.818182 256s9.611636-23.272727 21.480727-23.272727z" fill="#FFFFFF" p-id="10452"></path><path d="M488.727273 197.818182c38.562909 0 69.818182 26.065455 69.818182 58.181818s-31.255273 58.181818-69.818182 58.181818H155.601455l-50.106182-116.363636H488.727273z" fill="#99A1B9" p-id="10453"></path><path d="M768 372.363636a23.272727 23.272727 0 0 1-23.272727 23.272728h-46.545455a23.272727 23.272727 0 0 1 0-46.545455h46.545455a23.272727 23.272727 0 0 1 23.272727 23.272727z" fill="#FFCD36" p-id="10454"></path></svg>