<?xml version="1.0" encoding="utf-8"?>
<!-- Generator: Adobe Illustrator 23.0.3, SVG Export Plug-In . SVG Version: 6.00 Build 0)  -->
<svg version="1.1" id="图层_1" xmlns="http://www.w3.org/2000/svg" xmlns:xlink="http://www.w3.org/1999/xlink" x="0px" y="0px"
	 viewBox="0 0 754 412" style="enable-background:new 0 0 754 412;" xml:space="preserve">
<style type="text/css">
	.st0{fill:#357ABC;}
	.st1{fill:#EFC543;}
	.st2{fill:#C7392B;}
</style>
<path class="st0" d="M288.7,199c0.7-0.4,0.6-0.7-0.1-0.8c-85.2-19.3-170.4-38.8-255.8-58.6c-6.1-1.4-11.8-2.6-17-3.6
	c-1.7-0.3-1.7-0.8-0.2-1.5c1.9-0.8,3.9-1.4,6.1-1.9c8.4-1.6,17.2-3.2,26.3-5c31.1-6,62.3-9.9,93.6-11.7c48.3-2.9,96.1,0.4,143.4,9.7
	c9.7,1.9,19.1,3.9,28.2,5.9c17.2,3.8,33,7.7,48.2,9.5c12.9,1.6,26.6,1.3,38.3-4.3c2.6-1.2,6.8-3.9,12.6-7.9
	c49.7-34.7,99.3-69.3,149-104c1.5-1,3.2-1.1,5.2-0.2c15.9,7.3,31.8,14.5,47.7,21.6c1.1,0.5,2,1,3,1.6c0.4,0.3,0.5,0.8,0.3,1.3
	c-0.1,0.1-0.1,0.2-0.2,0.2C600,64,582.8,78.7,565.7,93.6c-29,25.1-54.1,53.9-77,85.2c-17.3,23.7-34.6,48.7-51.7,74.8
	c-1.2,1.8-2.7,1.8-4.8,1.3c-31.3-7.3-62.6-14.5-94-21.5c-1.8-0.4-3.6-0.9-5.2-1.4c-1.1-0.3-1.1-0.8-0.2-1.5l235-172.3
	c0.3-0.2,0.3-0.6,0.1-0.8c0-0.1-0.1-0.1-0.2-0.2c-1.9-1.2-4.2-2.3-6.8-3.4c-2.7-1.1-4.6,0.2-6.7,1.7
	C502,92.4,448.8,129.8,394.9,167.7c-2.9,2-7.5,6.6-11.4,5.7c-56.3-13.1-112.4-26-168.2-38.8c-1.1-0.2-2.2-0.4-3.2-0.4
	c-11.8-0.1-24.2,0-37.3,0.3c-8.5,0.2-17.2-0.2-26-0.3c-0.5,0-1,0.2-1.4,0.6L147,135c-0.1,0.1-0.1,0.2,0,0.3c0,0,0.1,0.1,0.1,0.1
	c6.1,1,12,2.3,17.7,4c4.7,1.4,9.5,2.3,14.2,3.5c62.4,15.2,123,30,181.8,44.4c1,0.3,2.1,0.6,3.2,1c0.3,0.1,0.5,0.5,0.4,0.8
	c0,0.1-0.1,0.2-0.2,0.3c-17,11.9-33.8,23.9-50.4,35.9c-1.8,1.3-3.9,1.5-6.2,0.9c-1.4-0.3-2.9-0.7-4.3-1
	c-52.5-12.1-107.9-24.8-166.2-38c-2.3-0.5-3.8-1.7-4.6-3.4c-1.6-3.9-3.2-7.7-4.6-11.4c-0.2-0.4,0-0.9,0.4-1.1c0.1-0.1,0.3-0.1,0.4,0
	c2.2,0.4,4.8,0.9,7.8,1.8c4.9,1.3,10,2.6,15.2,3.9c10.1,2.4,20.4,4.4,30.3,6.7c5.5,1.3,10.5,2.4,15.1,3.4
	c27.2,5.7,54.1,11.8,80.8,18.3c1.1,0.3,2.2,0,3.1-0.8C283.5,202.5,286,200.6,288.7,199z"/>
<path class="st1" d="M643.2,109.8c-0.3,0.2-0.5,0.3-0.5,0.3c-0.6,0-0.6,0.2-0.2,0.6c2,1.9,4,3.5,5.9,4.8c2,1.4,4,2.9,5.9,4.6
	c8,7.1,16.1,15.3,24.2,24.7c9.5,11,17.1,23.3,22.8,36.7c8.4,19.9,11.4,43.9,5.2,64.9c-7.6,25.9-25.8,46.4-47.2,61.1
	c-16.4,11.2-33.8,20.1-52.1,26.7c-12.5,4.4-21.6,7.4-27.4,8.8c-22.2,5.5-43.3,9.3-63.1,11.3c-33.2,3.4-68,3.4-104.3,0
	c-6.2-0.6-12.7-1.5-19.4-2.6c-20.7-3.7-42.1-8.5-64.1-14.6c-30.2-8.4-57.8-18.9-82.9-31.5c-7.8-3.9-15.5-8.3-23.3-13
	c-19.9-12.3-37.7-26.9-53.5-43.8c-4.1-4.4-7.7-9.2-11.6-13.9c-4-4.9-10-14.2-17.9-27.7c2.2,1.8,4.1,3.9,5.6,6.4
	c1.3,2.2,2.4,3.9,3.4,4.9c2.4,2.7,4.4,5.7,7.1,8.2c5.1,4.6,9.6,10.8,13.9,15c13.2,12.8,26.8,23.8,41,33c8,5.2,19.2,12.1,29.2,17
	c12.1,6,22.9,10.8,32.5,14.6c15,5.9,30.6,10.9,46.8,15.1c15,3.9,30.6,7.1,46.8,9.6c38.9,5.9,78.6,7.4,119,4.2
	c22.9-1.8,45.5-5.3,67.7-10.5c20.8-4.9,40.8-12,60.2-21.3c3.9-1.9,7.7-4,11.4-6.5c5.2-3.4,10.3-6.1,15.3-10
	c21-16.1,39.6-38.8,43.9-66.6c3.8-24.7-3.2-49-16-69.7c-6.6-10.7-14.6-20.9-23.9-30.7c-6.7-7-16.4-15.4-29.2-25.1
	c-3-2.3-5.6-5-9-6.9c-0.2-0.1-0.3-0.4-0.2-0.6c0,0,0.1-0.1,0.1-0.1l0.2-0.2c0.1-0.1,0.2-0.1,0.3,0c8.9,4.5,15.3,8,19.1,10.6
	C630.9,101.6,637.1,105.7,643.2,109.8z"/>
<path class="st2" d="M643.2,109.8c2.3,1.7,6.6,4.6,12.9,8.8c13.7,9,27,19.8,40,32.4c10.6,10.2,19.5,21.6,26.7,34.1
	c10.6,18.2,15.6,37.5,16.6,59.7c0.3,6.9-0.3,13.9-1.9,21c-5.7,25.3-21.5,47.4-41.1,63.4c-24.7,20.2-54.2,33.8-83.8,42.3
	c-43.1,12.4-87.9,17.2-132.5,16.4c-33.7-0.6-67.2-3.4-100.2-9.9c-11.4-2.2-24.4-5.5-39-9.7c-34-9.8-66.7-23.8-98.2-42.1
	c-17-9.9-33.3-21.5-48.9-34.8c-14.6-12.5-27-25.7-37.1-39.7c-11.4-15.8-21.1-35.1-22.8-55.1c-0.1-0.7,0.1-0.7,0.4-0.1l5.4,10.4
	c7.9,13.6,13.9,22.8,17.9,27.7c3.9,4.7,7.4,9.5,11.6,13.9c15.7,16.9,33.5,31.5,53.5,43.8c7.7,4.8,15.5,9.1,23.3,13
	c25.1,12.7,52.7,23.2,82.9,31.5c22,6.1,43.3,11,64.1,14.6c6.7,1.2,13.2,2.1,19.4,2.6c36.3,3.4,71.1,3.4,104.3,0
	c19.9-2,40.9-5.8,63.1-11.3c5.8-1.4,14.9-4.4,27.4-8.8c18.4-6.5,35.7-15.4,52.1-26.7c21.4-14.6,39.7-35.2,47.2-61.1
	c6.2-21.1,3.2-45.1-5.2-64.9c-5.7-13.4-13.3-25.7-22.8-36.7c-8.1-9.4-16.2-17.6-24.2-24.7c-1.9-1.7-3.9-3.2-5.9-4.6
	c-1.9-1.3-3.9-2.9-5.9-4.8c-0.4-0.4-0.3-0.6,0.2-0.6C642.7,110.2,642.9,110.1,643.2,109.8z"/>
<path class="st0" d="M566.5,250.9c-0.2,0.6,0,0.9,0.5,1c14.8,3.2,29.7,6.6,44.7,10.2c1.5,0.4,2.4,1.3,2.8,2.9
	c1.5,6.9,3.1,14,4.9,21.3c0.1,0.5-0.2,1-0.7,1.2c-0.1,0-0.3,0-0.4,0c-28.8-5.2-58.6-9.6-89.5-13.2c-5.1-0.6-10.7-1.1-16.8-1.4
	c-0.6,0-1.1-0.2-1.6-0.5c-0.5-0.3-0.6-0.9-0.4-1.4c0,0,0-0.1,0.1-0.1l39.6-58.6c0.6-0.9,1.7-1.4,2.7-1.1c14.7,3.5,29,6.8,43,9.8
	c2.1,0.4,4.1,0.8,6,1.2c0.7,0.1,1.5-0.2,2-0.8c1.1-1.6,1.9-3.4,3-5c6.2-9.3,12.2-18.3,18.1-26.8c0.3-0.5,0.2-1.2-0.2-1.5
	c-0.1-0.1-0.3-0.2-0.4-0.2c-5.3-1-10.7-2.4-16.2-4.2c-0.6-0.2-0.9-0.6-0.9-1.3c0-0.7,0.2-1.4,0.7-2c1.9-2.7,3.7-5.6,5.3-8.6
	c1.2-2.3,3.3-2.7,5.6-2.1c16.4,4,32.5,7.6,48.5,11c0.7,0.1,1.1,0.8,1,1.5c0,0.2-0.1,0.3-0.2,0.4c-0.8,1.3-1.5,2.6-2.3,3.7
	c-13.7,20.1-27.5,40.5-41.5,61.1c-1.4,2-3.6,5.5-6.3,4.8c-2.6-0.6-5.1-1.6-7.7-2.2c-10.4-2.4-22.1-5.3-35.2-8.8
	c-1.6-0.4-2.5,1.2-3.4,2.3C569.1,245.9,567.5,248.3,566.5,250.9z"/>
<path class="st0" d="M484,266.6c-10.1-2.4-20.2-4.7-30.2-7c-0.8-0.2-1.5-0.1-2.2,0.2c-0.5,0.2-0.6,0-0.5-0.5c0.5-2,1.3-3.8,2.5-5.5
	c11.3-16.7,22.3-32.8,33-48.2c3-4.3,3.5-8.7,10.1-7.1c11.1,2.7,21.8,5.1,32.3,7.2c2.7,0.5,5.4,1.5,8.1,2.3c0.3,0.1,0.4,0.4,0.3,0.6
	c0,0.1,0,0.1-0.1,0.1l-39.9,58.9c-0.5,0.7-1.3,1.1-2.1,1C491.2,268.6,487.8,267.5,484,266.6z M480.6,240.3c-0.4,0.6-0.3,1.4,0.3,1.9
	c0.2,0.1,0.3,0.2,0.5,0.2l12.4,2.7c0.5,0.1,1-0.1,1.3-0.5l12.8-18.4c0.4-0.6,0.3-1.4-0.3-1.9c-0.1-0.1-0.3-0.2-0.5-0.2l-12.2-2.9
	c-0.5-0.1-1,0.1-1.3,0.5L480.6,240.3z"/>
</svg>
